<?xml version="1.0" standalone="no"?>
<!DOCTYPE svg PUBLIC "-//W3C//DTD SVG 20010904//EN"
 "http://www.w3.org/TR/2001/REC-SVG-20010904/DTD/svg10.dtd">
<svg version="1.0" xmlns="http://www.w3.org/2000/svg"
 width="616.000000pt" height="616.000000pt" viewBox="0 0 616.000000 616.000000"
 preserveAspectRatio="xMidYMid meet">
<metadata>
Created by potrace 1.14, written by Peter Selinger 2001-2017
</metadata>
<g transform="translate(0.000000,616.000000) scale(0.100000,-0.100000)"
fill="#000000" stroke="none">
<path d="M1179 6156 c-2 -2 -22 -7 -44 -10 -94 -15 -211 -62 -304 -124 -70
-47 -173 -150 -216 -218 -34 -53 -84 -147 -86 -161 -1 -5 -3 -12 -5 -18 -7
-23 -26 -92 -32 -120 -9 -39 -9 -3962 0 -3995 4 -14 10 -40 14 -58 3 -18 11
-35 15 -38 5 -3 9 -13 9 -22 0 -31 86 -165 142 -223 116 -118 272 -195 412
-202 25 -1 46 -4 46 -7 0 -3 57 -4 126 -4 122 1 204 -12 228 -36 6 -6 16 -10
23 -10 40 0 147 -112 196 -205 23 -43 85 -107 134 -138 152 -95 358 -76 485
46 24 23 64 76 88 117 24 41 62 94 86 117 40 39 119 86 168 101 11 3 320 7
686 8 546 2 673 0 711 -12 46 -14 102 -60 178 -147 20 -24 37 -35 42 -30 6 6
28 5 57 -2 93 -24 174 5 264 95 33 33 67 60 74 60 8 0 14 4 14 9 0 23 120 34
340 30 14 0 73 8 115 15 197 37 381 183 472 376 17 36 35 81 39 100 4 19 10
42 13 50 3 8 7 902 8 1985 2 2041 3 1969 -32 2110 -7 31 -74 172 -98 209 -40
61 -184 206 -204 206 -7 0 -13 4 -13 8 0 11 -144 85 -195 100 -147 43 -53 42
-2056 42 -1043 0 -1898 -2 -1900 -4z m361 -236 c25 -1 50 -1 55 0 6 1 14 1 20
0 8 -1 70 -1 145 1 8 0 44 0 80 -1 136 -1 207 -1 255 0 62 2 57 2 188 -2 59
-2 107 -1 107 2 0 3 15 5 33 4 87 -5 123 -6 132 -4 6 1 14 1 20 0 8 -1 70 -1
145 1 8 0 44 0 80 -1 136 -1 207 -1 255 0 62 2 57 2 188 -2 59 -2 107 -1 107
2 0 3 15 5 33 4 87 -5 123 -6 132 -4 6 1 14 1 20 0 8 -1 70 -1 145 1 8 0 44 0
80 -1 136 -1 207 -1 255 0 62 2 57 2 188 -2 59 -2 107 -1 107 2 0 3 15 5 33 4
87 -5 123 -6 132 -4 6 1 14 1 20 0 5 -1 37 -1 70 -1 71 1 76 1 185 2 47 0 90
0 95 1 35 3 163 -15 203 -28 122 -41 236 -129 305 -237 52 -81 77 -166 83
-276 3 -52 7 -98 10 -102 3 -5 2 -9 -3 -9 -7 0 -9 -54 -3 -120 1 -14 1 -27 1
-30 -6 -15 -5 -110 0 -110 4 0 3 -17 -1 -38 -3 -20 -3 -49 1 -64 4 -15 4 -29
1 -32 -3 -4 -4 -36 -3 -74 1 -37 2 -71 2 -77 0 -5 -1 -31 -2 -57 -1 -27 0 -50
3 -53 3 -3 2 -20 -1 -38 -4 -18 -4 -46 0 -64 4 -18 4 -34 2 -37 -8 -7 -9 -106
-2 -106 4 0 3 -17 -1 -38 -3 -20 -3 -49 1 -64 4 -15 4 -29 1 -32 -3 -4 -4 -36
-3 -74 1 -37 2 -71 2 -77 0 -5 -1 -31 -2 -57 -1 -27 0 -50 3 -53 3 -3 2 -20
-1 -38 -4 -18 -4 -46 0 -64 4 -18 4 -34 2 -37 -8 -7 -9 -106 -2 -106 4 0 3
-17 -1 -38 -3 -20 -3 -49 1 -64 4 -15 4 -29 1 -32 -3 -4 -4 -36 -3 -74 1 -37
2 -71 2 -77 0 -5 -1 -31 -2 -57 -1 -27 0 -50 3 -53 3 -3 2 -20 -1 -38 -4 -18
-4 -46 0 -64 4 -18 4 -34 2 -37 -8 -7 -9 -106 -2 -106 4 0 3 -17 -1 -38 -3
-20 -3 -49 1 -64 4 -15 4 -29 1 -32 -3 -4 -4 -36 -3 -74 1 -37 2 -71 2 -77 0
-5 -1 -31 -2 -57 -1 -27 0 -50 3 -53 3 -3 2 -20 -1 -38 -4 -18 -4 -46 0 -64 4
-18 4 -34 2 -37 -8 -7 -9 -106 -2 -106 4 0 3 -17 -1 -38 -3 -20 -3 -49 1 -64
4 -15 4 -29 1 -32 -3 -4 -4 -36 -3 -74 1 -37 2 -71 2 -77 0 -5 -1 -31 -2 -57
-1 -27 0 -50 3 -53 3 -3 2 -20 -1 -38 -4 -18 -4 -46 0 -64 4 -18 4 -34 2 -37
-9 -9 -9 -106 0 -106 5 0 6 -4 2 -10 -5 -8 -7 -61 -4 -110 1 -8 -1 -46 -4 -85
-10 -129 -66 -234 -168 -315 -74 -58 -146 -82 -264 -86 -55 -2 -106 -6 -112
-9 -7 -2 -13 0 -13 6 0 6 -4 8 -10 4 -5 -3 -31 -6 -57 -6 -145 -1 -282 -61
-379 -167 -39 -42 -57 -38 -102 24 -19 25 -36 43 -38 41 -3 -3 -31 11 -62 29
-56 34 -133 62 -193 69 -18 3 -34 6 -36 9 -2 2 -20 0 -39 -4 -19 -5 -37 -4
-40 1 -3 5 -10 7 -15 4 -7 -5 -50 -6 -194 -4 -34 0 -179 1 -205 0 -87 0 -123
-1 -188 -4 -28 -1 -52 0 -52 3 0 3 -31 3 -70 0 -38 -3 -70 -3 -70 0 0 6 -138
3 -156 -4 -8 -3 -14 -1 -14 4 0 5 -6 7 -13 4 -23 -8 -187 -9 -187 -1 0 5 -4 6
-9 3 -4 -3 -33 -8 -62 -12 -71 -8 -180 -47 -248 -87 -77 -46 -172 -143 -222
-228 -49 -82 -53 -88 -89 -112 -51 -33 -143 -24 -185 18 -16 15 -75 105 -75
113 0 4 -12 21 -26 37 -14 17 -33 39 -43 50 -34 43 -138 120 -201 148 -36 16
-66 29 -67 29 -2 -1 -21 5 -43 13 -45 16 -174 29 -240 25 -28 -2 -177 7 -201
12 -9 2 -45 18 -82 36 -111 55 -201 164 -231 281 -10 38 -19 206 -17 321 0 14
0 68 0 120 0 105 0 97 1 232 1 53 -1 101 -4 107 -4 5 -2 12 4 16 6 4 8 11 5
16 -4 5 -6 51 -5 101 1 51 1 100 1 108 0 8 0 33 0 55 0 46 0 40 0 160 0 50 0
95 0 100 -1 61 -2 304 -2 340 0 11 0 65 0 120 0 55 0 111 0 125 0 14 0 68 0
120 0 52 0 104 0 115 0 11 0 65 0 120 0 55 0 111 0 125 0 20 0 171 0 230 0 8
0 35 1 60 1 40 2 210 1 250 0 8 0 33 0 55 0 46 0 40 0 160 0 50 0 95 1 100 0
6 -1 21 -2 35 -1 21 -1 120 -1 225 1 49 0 219 -1 235 -2 65 13 203 26 240 10
25 18 50 20 55 1 6 10 26 21 45 58 111 151 197 268 250 86 38 136 47 265 46
62 -1 112 1 112 4 0 3 15 5 33 4 17 -1 52 -3 77 -4z"/>
<path d="M2235 4366 c-33 -7 -62 -13 -65 -14 -3 -1 -16 -5 -29 -9 -31 -8 -125
-58 -152 -81 -52 -43 -70 -64 -103 -114 -36 -57 -72 -161 -61 -178 3 -5 2 -10
-2 -10 -5 0 -8 -195 -7 -432 1 -406 3 -437 22 -495 44 -138 134 -233 273 -289
34 -14 76 -27 93 -29 17 -3 42 -7 56 -10 37 -8 170 -8 210 -1 19 4 49 9 65 12
47 8 166 69 213 109 40 35 130 155 116 155 -3 0 -2 6 3 13 30 38 38 117 38
372 l0 260 -287 1 -288 1 0 -142 0 -141 115 -1 c63 0 117 -2 120 -5 10 -10 7
-175 -4 -216 -24 -89 -96 -135 -207 -131 -84 3 -136 27 -171 80 l-28 43 -3
390 c-4 433 0 474 49 524 34 34 97 58 149 56 19 0 49 -2 65 -3 71 -3 155 -93
155 -166 0 -14 3 -26 8 -26 23 -4 309 -5 320 -1 9 3 11 19 6 61 -3 31 -10 63
-14 71 -4 8 -8 17 -8 20 3 27 -59 136 -101 179 -58 60 -137 103 -253 140 -52
17 -221 20 -293 7z"/>
<path d="M3174 4351 c-2 -2 -4 -371 -4 -818 l0 -815 43 2 c23 1 47 1 52 0 27
-4 165 -4 165 0 0 3 17 4 38 2 l39 -4 1 334 c0 183 1 340 1 348 1 14 25 16
179 14 97 0 182 -2 187 -2 6 -1 10 -124 10 -346 l-1 -345 36 0 c53 -2 273 -1
288 1 10 1 12 168 10 817 l-3 816 -165 0 -165 0 -1 -312 c0 -172 -2 -315 -5
-318 -5 -4 -63 -6 -109 -4 -8 0 -33 0 -55 0 -122 -2 -196 -1 -204 3 -3 2 -6
144 -5 315 1 171 -2 312 -5 312 -18 4 -323 4 -327 0z"/>
</g>
</svg>
