<svg width="65" height="77" viewBox="0 0 65 77" fill="none" xmlns="http://www.w3.org/2000/svg">
<path d="M47.5339 65.3976L46.3815 66.3578L47.5339 65.3975L47.4292 65.272C46.4936 64.1492 45.1075 63.5 43.6459 63.5H28.6508C26.1479 63.5 23.8673 64.9373 22.7874 67.1953C21.5661 69.7487 17.9764 69.8714 16.5837 67.4074L16.321 66.9427C15.1187 64.8154 12.8643 63.5 10.4207 63.5H8.52561C4.64547 63.5 1.5 60.3545 1.5 56.4744V10C1.5 5.30558 5.30558 1.5 10 1.5H55C59.6944 1.5 63.5 5.30558 63.5 10V56.6056C63.5 60.4133 60.4133 63.5 56.6056 63.5H54.1107C52.6315 63.5 51.2352 64.1829 50.3271 65.3505C49.6244 66.254 48.2666 66.2769 47.5339 65.3976Z" stroke="#FFF0BB" stroke-width="3"/>
<path d="M23.512 43.28C22.1493 43.28 20.9547 43.028 19.928 42.524C18.9013 42.0013 18.0987 41.2827 17.52 40.368C16.96 39.4347 16.68 38.352 16.68 37.12V28.44C16.68 27.1893 16.96 26.1067 17.52 25.192C18.0987 24.2773 18.9013 23.568 19.928 23.064C20.9547 22.5413 22.1493 22.28 23.512 22.28C24.8933 22.28 26.088 22.5413 27.096 23.064C28.1227 23.568 28.916 24.2773 29.476 25.192C30.0547 26.1067 30.344 27.1893 30.344 28.44H26.144C26.144 27.6187 25.9107 26.9933 25.444 26.564C24.996 26.1347 24.352 25.92 23.512 25.92C22.672 25.92 22.0187 26.1347 21.552 26.564C21.104 26.9933 20.88 27.6187 20.88 28.44V37.12C20.88 37.9227 21.104 38.548 21.552 38.996C22.0187 39.4253 22.672 39.64 23.512 39.64C24.352 39.64 24.996 39.4253 25.444 38.996C25.9107 38.548 26.144 37.9227 26.144 37.12V35.216H23.12V31.66H30.344V37.12C30.344 38.352 30.0547 39.4347 29.476 40.368C28.916 41.2827 28.1227 42.0013 27.096 42.524C26.088 43.028 24.8933 43.28 23.512 43.28ZM33.6371 43V22.56H37.8371V30.512H42.5411V22.56H46.7411V43H42.5411V34.292H37.8371V43H33.6371Z" fill="#FFF0BB"/>
</svg>
