<svg width="34" height="34" viewBox="0 0 34 34" fill="none" xmlns="http://www.w3.org/2000/svg">
<path d="M30.1763 4.0707C29.8451 4.08523 29.5228 4.1774 29.232 4.29382C28.9443 4.40946 27.2876 5.11654 24.8412 6.16249C22.3949 7.20844 19.2147 8.57049 16.0623 9.92109C9.75756 12.6223 3.56202 15.2801 3.56202 15.2801L3.60718 15.2628C3.60718 15.2628 3.23325 15.3878 2.85413 15.6519C2.66458 15.784 2.46064 15.9545 2.29367 16.2031C2.12669 16.4517 2.00462 16.804 2.05062 17.1766C2.2122 18.4855 3.56867 18.8567 3.56867 18.8567L3.57398 18.8594L9.62757 20.9312C9.78191 21.4461 11.4637 27.0592 11.8336 28.2479C12.0379 28.9051 12.2291 29.2842 12.4286 29.5428C12.5284 29.6722 12.633 29.7724 12.7487 29.8456C12.7946 29.8747 12.843 29.8966 12.8908 29.916H12.8934C12.8993 29.9186 12.9048 29.9188 12.9107 29.9213L12.8948 29.9173C12.9059 29.9218 12.9168 29.9294 12.928 29.9333C12.9495 29.9408 12.9628 29.9406 12.9904 29.9466C13.6837 30.1886 14.2574 29.7394 14.2574 29.7394L14.2813 29.7208L18.0001 26.2716L24.0351 30.9772L24.1108 31.0117C25.1671 31.4807 26.1224 31.2191 26.6515 30.7886C27.1805 30.3581 27.3886 29.8031 27.3886 29.8031L27.4112 29.7447L31.8458 6.63132C31.9592 6.11422 31.9754 5.66725 31.8684 5.26335C31.7613 4.85945 31.5013 4.50835 31.1751 4.31374C30.8488 4.11914 30.5075 4.05617 30.1763 4.0707ZM30.2122 5.45327C30.3467 5.44704 30.4464 5.46242 30.4778 5.48116C30.5092 5.49991 30.5233 5.49744 30.5535 5.61132C30.5837 5.7252 30.6 5.96506 30.5177 6.34046L30.515 6.34843L26.1056 29.3277C26.0952 29.3508 26.0033 29.5634 25.7935 29.7341C25.5795 29.9082 25.3415 30.0441 24.7098 29.7792L18.1103 24.6327L17.9244 24.4866L17.9204 24.4906L15.9468 23.0098L27.038 9.96093C27.1232 9.86092 27.1776 9.73837 27.1947 9.60809C27.2117 9.4778 27.1907 9.34537 27.134 9.2268C27.0774 9.10823 26.9877 9.0086 26.8756 8.93995C26.7636 8.87131 26.6341 8.83659 26.5027 8.83999C26.3744 8.84333 26.2496 8.88293 26.1428 8.95421L10.0937 19.6536L4.03085 17.5777C4.03085 17.5777 3.42881 17.2427 3.39999 17.0093C3.3984 16.9964 3.39129 17.0081 3.42257 16.9615C3.45386 16.9149 3.53249 16.8363 3.63109 16.7676C3.82827 16.6302 4.05343 16.5471 4.05343 16.5471L4.07601 16.5391L4.09859 16.5298C4.09859 16.5298 10.2944 13.8719 16.5989 11.1709C19.7511 9.82032 22.9307 8.45928 25.3765 7.41359C27.8216 6.36817 29.5884 5.61568 29.738 5.55554C29.9084 5.48734 30.0777 5.4595 30.2122 5.45327ZM22.857 12.7792L14.446 22.6751L14.442 22.6791C14.4289 22.6949 14.4165 22.7113 14.4048 22.7282C14.3915 22.7466 14.3791 22.7657 14.3677 22.7853C14.3204 22.8655 14.2901 22.9546 14.2787 23.0469C14.2787 23.0487 14.2787 23.0505 14.2787 23.0523L13.183 27.9796C13.1647 27.9264 13.152 27.9069 13.1325 27.8441V27.8428C12.7845 26.7246 11.1978 21.4309 10.9783 20.6988L22.857 12.7792ZM15.3956 24.2967L16.907 25.4309L14.6864 27.4895L15.3956 24.2967Z" fill="#FFF0BB"/>
</svg>
